FFmpeg version SVN-r25716, Copyright (c) 2000-2010 the FFmpeg developers  built on Nov 10 2010 12:23:18 with gcc 4.1.2 20080704 (Red Hat 4.1.2-48)  configuration: --enable-libmp3lame --enable-shared --disable-mmx --arch=x86_64  libavutil     50.33. 0 / 50.33. 0  libavcore      0.12. 1 /  0.12. 1  libavcodec    52.94. 4 / 52.94. 4  libavformat   52.84. 0 / 52.84. 0  libavdevice   52. 2. 2 / 52. 2. 2  libavfilter    1.59. 0 /  1.59. 0  libswscale     0.12. 0 /  0.12. 0Input #0, avi, from '/RAID10/data/converted_video_files/47571.avi':  Duration: 00:00:01.36, start: 0.000000, bitrate: 283049 kb/s    Stream #0.0: Video: msvideo1, rgb555le, 1024x1024, 30 tbr, 30 tbn, 30 tbc[buffer @ 0x30bfb40] w:1024 h:1024 pixfmt:rgb555le[ffsink @ 0x30f9ec0] auto-inserting filter 'auto-inserted scaler 0' between the filter 'src' and the filter 'out'[scale @ 0x30fa1e0] w:1024 h:1024 fmt:rgb555le -> w:1024 h:1024 fmt:yuv420p flags:0x4Output #0, flv, to '/RAID10/data/converted_video_files/47571.flv':  Metadata:    encoder         : Lavf52.84.0    Stream #0.0: Video: flv, yuv420p, 1024x1024, q=2-31, 600 kb/s, 1k tbn, 24 tbcStream mapping:  Stream #0.0 -> #0.0Press [q] to stop encodingframe=    7 fps=  0 q=11.5 size=     398kB time=0.29 bitrate=11178.3kbits/s dup=0 drop=1    frame=   15 fps= 13 q=31.0 size=     455kB time=0.62 bitrate=5968.9kbits/s dup=0 drop=3    frame=   23 fps= 14 q=31.0 size=     468kB time=0.96 bitrate=4005.2kbits/s dup=0 drop=6    frame=   32 fps= 15 q=31.0 size=     505kB time=1.33 bitrate=3101.2kbits/s dup=0 drop=7    frame=   33 fps= 14 q=31.0 Lsize=     506kB time=1.38 bitrate=3014.3kbits/s dup=0 drop=8    video:505kB audio:0kB global headers:0kB muxing overhead 0.142653%